<?xml version="1.0" encoding="UTF-8"?>
<svg width="79px" height="72px" viewBox="0 0 79 72" version="1.1" xmlns="http://www.w3.org/2000/svg" xmlns:xlink="http://www.w3.org/1999/xlink">
    <!-- Generator: sketchtool 45 (43475) - http://www.bohemiancoding.com/sketch -->
    <title>B5E36A65-308D-4534-9721-0723D6A69E9C</title>
    <desc>Created with sketchtool.</desc>
    <defs></defs>
    <g id="Landing" stroke="none" stroke-width="1" fill="none" fill-rule="evenodd">
        <g id="Iphone_Menu" transform="translate(-141.000000, -116.000000)" fill="#7A7977">
            <g id="B-Symbol" transform="translate(141.000000, 116.000000)">
                <path d="M61.3159713,71.8047867 L18.5231531,71.8047867 L18.5231531,51.6079156 L24.3255691,51.6079156 L24.3255691,66.4487104 L61.3717638,66.4487104 C70.9122747,66.4487104 73.7018978,64.1612195 73.7018978,56.1828974 C73.7018978,48.1493409 71.0238596,45.9728769 61.3717638,45.9728769 L5.57924618e-05,45.9728769 L5.57924618e-05,40.6168006 L61.3159713,40.6168006 C71.6375767,40.6168006 78.555842,43.2948388 78.555842,56.1828974 C78.555842,65.6118235 75.5988415,71.8047867 61.3159713,71.8047867" id="Fill-1"></path>
                <path d="M78.5557862,15.5660968 C78.5557862,28.509948 71.6375209,31.1321937 61.3159155,31.1321937 L0,31.1321937 L0,25.7761173 L61.371708,25.7761173 C71.0238039,25.7761173 73.701842,23.5444189 73.701842,15.5660968 C73.701842,7.64356726 70.9122189,5.35607633 61.371708,5.35607633 L24.3255133,5.35607633 L24.3255133,20.1968712 L18.5230973,20.1968712 L18.5230973,-2.84217094e-14 L61.3159155,-2.84217094e-14 C75.5987857,-2.84217094e-14 78.5557862,6.24875572 78.5557862,15.5660968" id="Fill-3"></path>
            </g>
        </g>
    </g>
</svg>